<svg width="40" height="40" viewBox="0 0 40 40" fill="none" xmlns="http://www.w3.org/2000/svg">
    <path d="M0 8C0 3.58172 3.58172 0 8 0H32C36.4183 0 40 3.58172 40 8V32C40 36.4183 36.4183 40 32 40H8C3.58172 40 0 36.4183 0 32V8Z" fill="#65AAEA"/>
    <path d="M28.5715 19V16H27.0715V19H24.0715V20.5H27.0715V23.5H28.5715V20.5H31.5715V19H28.5715Z" fill="white"/>
    <path d="M15.0715 18V21H19.315C18.6955 22.746 17.0275 24 15.0715 24C12.5905 24 10.5715 21.981 10.5715 19.5C10.5715 17.019 12.5905 15 15.0715 15C16.147 15 17.182 15.3855 17.986 16.086L19.957 13.824C18.607 12.648 16.873 12 15.0715 12C10.936 12 7.57153 15.3645 7.57153 19.5C7.57153 23.6355 10.936 27 15.0715 27C19.207 27 22.5715 23.6355 22.5715 19.5V18H15.0715Z" fill="white"/>
</svg>
