<svg width="40" height="40" viewBox="0 0 40 40" fill="none" xmlns="http://www.w3.org/2000/svg">
    <path d="M0 8C0 3.58172 3.58172 0 8 0H32C36.4183 0 40 3.58172 40 8V32C40 36.4183 36.4183 40 32 40H8C3.58172 40 0 36.4183 0 32V8Z" fill="#65AAEA"/>
    <path d="M24.4505 20.9796C24.4505 23.1724 22.6727 24.9502 20.4799 24.9502C18.2871 24.9502 16.5093 23.1724 16.5093 20.9796C16.5093 18.7868 18.2871 17.009 20.4799 17.009C22.6727 17.009 24.4505 18.7868 24.4505 20.9796Z" fill="white"/>
    <path d="M27.1854 8.97961H13.7736C10.8543 8.97961 8.47949 11.3544 8.47949 14.2737V27.6855C8.47949 30.6048 10.8543 32.9796 13.7736 32.9796H27.1854C30.1047 32.9796 32.4795 30.6048 32.4795 27.6855V14.2737C32.4795 11.3544 30.1047 8.97961 27.1854 8.97961ZM20.4795 27.5973C16.8305 27.5973 13.8618 24.6286 13.8618 20.9796C13.8618 17.3306 16.8305 14.362 20.4795 14.362C24.1285 14.362 27.0971 17.3306 27.0971 20.9796C27.0971 24.6286 24.1285 27.5973 20.4795 27.5973ZM28.0677 14.7149C27.3367 14.7149 26.7442 14.1224 26.7442 13.3914C26.7442 12.6603 27.3367 12.0678 28.0677 12.0678C28.7988 12.0678 29.3913 12.6603 29.3913 13.3914C29.3913 14.1224 28.7988 14.7149 28.0677 14.7149Z" fill="white"/>
</svg>
