<svg width="29" height="36" viewBox="0 0 29 36" fill="none" xmlns="http://www.w3.org/2000/svg">
    <path d="M22.0044 22.2209C20.4247 21.4095 21.0334 22.0302 19.0941 21.2001C17.155 20.3713 16.6956 20.1003 16.6956 20.1003L16.6784 18.1991C16.6784 18.1991 17.4047 17.63 17.6312 15.832C18.0847 15.9675 18.2381 15.2832 18.2628 14.846C18.2897 14.4237 18.5309 13.1074 17.9762 13.2249C18.0897 12.346 18.1787 11.5514 18.1387 11.1307C18 9.65441 17.0112 8.1126 14.5153 8C12.3934 8.1126 11.0159 9.65537 10.8769 11.1317C10.8369 11.5524 10.9184 12.3464 11.0319 13.2268C10.4775 13.1078 10.7162 14.4266 10.7406 14.8486C10.7675 15.2858 10.9175 15.972 11.3719 15.8365C11.5975 17.6348 12.3237 18.2081 12.3237 18.2081L12.3056 20.1196C12.3056 20.1196 11.8462 20.409 9.90719 21.2378C7.96812 22.0683 8.57625 21.4098 6.99656 22.2209C4.5 23.5033 4.5 27.0299 4.5 27.0299C4.5 27.5667 4.91969 28 5.4375 28H23.5625C24.0803 28 24.5 27.5667 24.5 27.0321C24.5003 27.0299 24.5003 23.5026 22.0044 22.2209Z" fill="#BEBAB3"/>
</svg>
