<svg width="31" height="38" viewBox="0 0 31 38" fill="none" xmlns="http://www.w3.org/2000/svg">
    <g clip-path="url(#clip0_646_834)">
        <path d="M26.6 17.208L25.304 17.078C25.217 16.629 25.099 16.188 24.954 15.762L26.01 15.003C26.428 14.702 26.55 14.138 26.292 13.691L25.494 12.31C25.237 11.864 24.688 11.687 24.217 11.898L23.035 12.432C22.736 12.089 22.412 11.765 22.069 11.466L22.603 10.283C22.814 9.813 22.637 9.264 22.191 9.006L20.81 8.209C20.362 7.951 19.799 8.073 19.498 8.491L18.739 9.547C18.313 9.401 17.872 9.284 17.423 9.197L17.293 7.901C17.241 7.387 16.813 7 16.297 7H14.702C14.186 7 13.758 7.387 13.707 7.9L13.577 9.196C13.128 9.283 12.687 9.401 12.261 9.546L11.502 8.491C11.202 8.073 10.638 7.951 10.19 8.209L8.81 9.006C8.363 9.264 8.186 9.813 8.398 10.284L8.932 11.466C8.588 11.765 8.265 12.088 7.966 12.432L6.783 11.897C6.313 11.686 5.764 11.863 5.506 12.31L4.709 13.69C4.451 14.138 4.573 14.702 4.991 15.002L6.047 15.761C5.901 16.187 5.784 16.628 5.697 17.077L4.401 17.207C3.887 17.259 3.5 17.687 3.5 18.203V19.798C3.5 20.314 3.887 20.742 4.4 20.793L5.696 20.923C5.783 21.372 5.901 21.813 6.046 22.239L4.99 22.998C4.572 23.299 4.45 23.863 4.708 24.31L5.505 25.691C5.763 26.138 6.313 26.316 6.782 26.103L7.964 25.569C8.263 25.912 8.587 26.236 8.93 26.535L8.396 27.718C8.185 28.188 8.362 28.737 8.808 28.995L10.189 29.792C10.637 30.051 11.201 29.929 11.501 29.51L12.26 28.454C12.686 28.6 13.127 28.717 13.576 28.804L13.706 30.1C13.759 30.613 14.187 31 14.703 31H16.298C16.814 31 17.242 30.613 17.293 30.1L17.423 28.804C17.872 28.717 18.313 28.599 18.739 28.454L19.498 29.51C19.799 29.928 20.361 30.049 20.81 29.792L22.191 28.995C22.637 28.737 22.815 28.188 22.603 27.718L22.069 26.536C22.412 26.237 22.736 25.913 23.035 25.57L24.218 26.104C24.688 26.315 25.238 26.139 25.495 25.692L26.292 24.311C26.55 23.864 26.428 23.3 26.01 22.999L24.954 22.24C25.1 21.814 25.217 21.373 25.304 20.924L26.6 20.794C27.113 20.741 27.5 20.313 27.5 19.797V18.202C27.5 17.687 27.113 17.259 26.6 17.208ZM15.5 12C19.019 12 21.932 14.613 22.42 18H17.788C17.401 17.119 16.523 16.5 15.5 16.5C15.407 16.5 15.318 16.518 15.227 16.528L12.905 12.504C13.708 12.182 14.583 12 15.5 12ZM8.5 19C8.5 16.773 9.549 14.79 11.174 13.507L13.493 17.523C13.187 17.939 13 18.446 13 19C13 19.554 13.187 20.061 13.493 20.476L11.174 24.492C9.549 23.209 8.5 21.227 8.5 19ZM15.5 26C14.583 26 13.708 25.818 12.905 25.495L15.228 21.472C15.318 21.482 15.407 21.5 15.5 21.5C16.523 21.5 17.401 20.881 17.788 20H22.42C21.932 23.387 19.019 26 15.5 26Z" fill="#BEBAB3"/>
    </g>
    <defs>
        <clipPath id="clip0_646_834">
            <rect width="24" height="24" fill="white" transform="translate(3.5 7)"/>
        </clipPath>
    </defs>
</svg>
