<svg width="24" height="25" viewBox="0 0 24 25" fill="none" xmlns="http://www.w3.org/2000/svg">
    <g clip-path="url(#clip0_646_698)">
        <path d="M14.828 9.67166C14.633 9.47666 14.316 9.47666 14.121 9.67166C13.926 9.86666 13.926 10.1847 14.121 10.3787C14.687 10.9447 15 11.6977 15 12.4997C15 14.1537 13.654 15.4997 12 15.4997C11.198 15.4997 10.445 15.1877 9.87902 14.6207C9.68402 14.4257 9.36701 14.4257 9.17201 14.6207C8.97701 14.8147 8.97701 15.1327 9.17201 15.3277C9.92599 16.0837 10.931 16.4997 12 16.4997C14.206 16.4997 16 14.7057 16 12.4997C16 11.4306 15.584 10.4256 14.828 9.67166Z" fill="#3C3A36"/>
        <path d="M12.6971 8.56863C12.4701 8.52864 12.2381 8.49963 12.0001 8.49963C9.79412 8.49963 8.00012 10.2936 8.00012 12.4996C8.00012 12.7376 8.02914 12.9696 8.07011 13.1966C8.11309 13.4386 8.32412 13.6096 8.56112 13.6096C8.59014 13.6096 8.61911 13.6076 8.64911 13.6016C8.92009 13.5536 9.10211 13.2936 9.05411 13.0226C9.02312 12.8526 9.00011 12.6796 9.00011 12.4996C9.00011 10.8456 10.3461 9.49961 12.0001 9.49961C12.1801 9.49961 12.3531 9.52262 12.5231 9.55262C12.7891 9.60662 13.0541 9.41861 13.1021 9.14763C13.1501 8.87664 12.9681 8.61663 12.6971 8.56863Z" fill="#3C3A36"/>
        <path d="M23.881 12.1766C23.768 12.0426 21.063 8.88564 17.332 6.95266C17.09 6.82568 16.785 6.92168 16.658 7.16768C16.531 7.41269 16.627 7.71466 16.873 7.84169C19.747 9.32969 22.043 11.6517 22.828 12.4997C21.636 13.7907 16.945 18.4997 12 18.4997C10.322 18.4997 8.63102 18.0947 6.97202 17.2947C6.72602 17.1737 6.42504 17.2787 6.30504 17.5277C6.18405 17.7757 6.28905 18.0747 6.53805 18.1947C8.33303 19.0617 10.171 19.4997 12.0001 19.4997C18.1611 19.4997 23.6511 13.0957 23.8821 12.8227C24.04 12.6366 24.039 12.3636 23.881 12.1766Z" fill="#3C3A36"/>
        <path d="M15.2811 6.07563C14.1431 5.69261 13.0391 5.49963 12 5.49963C5.83904 5.49963 0.349052 11.9036 0.118052 12.1766C-0.0279632 12.3486 -0.0399632 12.5986 0.0900678 12.7856C0.159068 12.8846 1.81206 15.2316 4.67706 17.1346C4.76204 17.1916 4.85706 17.2186 4.95306 17.2186C5.11407 17.2186 5.27307 17.1406 5.36907 16.9936C5.52207 16.7647 5.45907 16.4536 5.22906 16.3016C3.12508 14.9026 1.68508 13.2136 1.14607 12.5266C2.29708 11.2766 7.01907 6.49966 12 6.49966C12.931 6.49966 13.9281 6.67567 14.962 7.02264C15.224 7.11663 15.508 6.97164 15.595 6.70863C15.6831 6.44664 15.543 6.16366 15.2811 6.07563Z" fill="#3C3A36"/>
    </g>
    <defs>
        <clipPath id="clip0_646_698">
            <rect width="24" height="24" fill="white" transform="translate(0 0.5)"/>
        </clipPath>
    </defs>
</svg>
